<svg xmlns="http://www.w3.org/2000/svg" xmlns:v="https://svgstorm.com"
viewBox = "0 0 644 389"
width="644"
height="389">
<g fill="None" fill-opacity="0.0" stroke="#000000" stroke-opacity="0.00" stroke-width="0.3"><path d="
M 0.00 389.00 
L 644.00 389.00
L 644.00 0.00
L 545.00 0.00
C 555.86 34.23 539.47 69.01 504.92 80.92 C 470.38 92.84 422.80 82.06 386.99 89.99 C 351.19 97.92 363.99 153.05 326.00 156.00
C 326.00 149.67 326.00 143.33 326.00 137.00
C 350.93 128.01 342.45 101.23 359.75 82.75 C 377.05 64.28 404.39 63.29 429.00 63.00 C 453.61 62.71 483.10 59.26 505.23 51.23 C 527.36 43.20 539.99 21.93 543.00 0.00
L 96.00 0.00
C 99.14 21.71 110.99 42.63 133.02 50.98 C 155.06 59.32 185.39 62.61 210.00 63.00 C 234.61 63.39 261.12 64.15 278.75 82.25 C 296.39 100.35 288.04 128.06 313.00 137.00
C 313.00 143.33 313.00 149.67 313.00 156.00
C 275.06 152.85 287.73 98.08 251.92 90.08 C 216.12 82.07 168.52 92.90 133.98 81.02 C 99.43 69.15 83.24 34.00 94.00 0.00
L 0.00 0.00
L 0.00 389.00
M 292.00 12.00 
C 298.69 13.25 298.08 24.88 290.00 24.00 C 281.91 23.11 284.25 10.55 292.00 12.00
M 323.00 12.00 
C 330.49 14.81 324.08 29.55 316.33 24.67 C 308.58 19.79 314.60 8.85 323.00 12.00
M 350.00 12.00 
C 357.65 13.43 355.00 26.05 347.00 24.00 C 339.00 21.95 343.04 10.70 350.00 12.00
M 312.00 88.00 
C 314.82 99.37 311.97 112.18 313.00 124.00
C 299.58 118.07 303.64 99.14 297.00 88.00
C 265.01 19.59 163.01 77.82 120.00 27.00
C 154.94 33.94 199.01 38.77 235.00 38.00 C 270.99 37.23 300.77 54.30 312.00 88.00
M 342.00 88.00 
C 336.55 99.65 338.61 117.69 326.00 124.00
C 326.58 112.06 324.79 99.53 327.00 88.00
C 332.22 66.94 346.48 53.11 367.23 44.23 C 387.98 35.35 421.01 38.92 445.00 37.00 C 468.99 35.08 496.29 31.52 520.00 27.00
C 472.76 76.40 378.12 21.37 342.00 88.00
M 262.00 110.00 
C 265.86 114.34 269.30 119.72 269.00 126.00
C 228.24 120.29 176.94 140.04 145.00 110.00
C 140.67 105.37 136.37 99.97 137.00 93.00
C 155.93 102.66 180.07 98.19 201.00 100.00 C 221.93 101.81 247.28 92.82 262.00 110.00
M 490.00 114.00 
C 475.06 127.95 456.48 126.04 436.00 126.00 C 415.52 125.96 390.86 126.03 370.00 126.00
C 369.74 120.80 372.28 116.17 375.00 112.00
C 389.30 92.76 414.34 101.49 436.00 100.00 C 457.66 98.51 483.21 102.34 503.00 93.00
C 501.12 101.03 497.26 109.10 490.00 114.00
M 287.00 155.00 
C 287.32 161.62 276.59 163.28 270.98 164.98 C 265.36 166.67 253.14 167.19 246.00 167.00 C 238.86 166.81 228.28 167.57 221.33 165.67 C 214.37 163.78 209.27 160.64 204.00 156.00
C 198.63 151.27 191.84 145.79 191.00 138.00
C 203.27 137.58 215.76 138.56 228.00 138.00 C 240.24 137.44 253.95 139.04 266.00 138.00 C 278.05 136.96 279.95 147.73 287.00 155.00
M 435.00 156.00 
C 429.67 160.69 425.26 163.19 418.32 165.32 C 411.38 167.45 400.20 166.90 393.00 167.00 C 385.80 167.10 374.49 166.73 368.98 165.02 C 363.47 163.32 351.66 162.08 352.00 155.00
C 352.29 149.02 359.54 148.93 361.75 142.75 C 363.96 136.57 373.42 137.84 380.00 138.00 C 386.58 138.16 395.84 137.93 403.00 138.00 C 410.16 138.07 418.60 137.96 426.00 138.00 C 433.40 138.04 441.53 137.97 449.00 138.00
C 445.90 144.97 441.33 151.83 435.00 156.00
M 139.00 147.00 
C 147.44 148.85 143.92 163.75 135.00 161.00 C 126.08 158.25 130.65 145.18 139.00 147.00
M 504.00 147.00 
C 512.44 148.85 508.92 163.75 500.00 161.00 C 491.08 158.25 495.65 145.18 504.00 147.00
M 111.00 148.00 
C 117.98 150.52 112.65 163.86 105.33 159.67 C 98.01 155.48 103.88 145.43 111.00 148.00
M 168.00 148.00 
C 175.53 149.75 171.50 162.74 164.00 160.00 C 156.50 157.26 160.27 146.20 168.00 148.00
M 476.00 148.00 
C 483.01 150.63 477.59 163.86 470.33 159.67 C 463.07 155.48 468.71 145.27 476.00 148.00
M 534.00 148.00 
C 540.99 150.62 535.44 163.39 528.33 159.67 C 521.22 155.95 526.46 145.17 534.00 148.00
M 313.00 169.00 
C 310.93 195.66 267.36 197.32 256.00 177.00
C 266.61 176.09 277.65 177.84 286.25 170.25 C 294.84 162.65 302.56 166.46 313.00 169.00
M 383.00 177.00 
C 371.65 197.31 328.07 195.67 326.00 169.00
C 336.32 166.85 343.54 162.37 352.08 169.92 C 360.61 177.48 372.32 176.29 383.00 177.00
M 261.00 238.00 
C 259.91 242.63 254.18 244.87 252.00 249.00
C 241.53 240.09 224.04 233.92 212.25 244.25 C 200.46 254.58 200.24 270.93 211.70 281.30 C 223.17 291.67 241.55 286.47 252.00 277.00
C 253.76 281.06 257.57 284.32 261.00 287.00
C 238.24 315.95 188.52 301.81 188.00 264.00 C 187.49 226.19 236.46 209.69 261.00 238.00
M 633.00 237.00 
C 631.91 241.63 626.18 243.87 624.00 248.00
C 608.38 232.09 577.29 237.95 576.00 262.00 C 574.71 286.05 608.76 296.64 621.00 277.00
C 614.00 277.00 607.00 277.00 600.00 277.00
C 600.00 272.00 600.00 267.00 600.00 262.00
C 609.59 263.78 626.10 259.63 635.00 262.00 C 643.90 264.37 636.12 280.85 632.08 287.08 C 628.03 293.30 619.71 300.05 611.33 301.33 C 602.95 302.60 588.13 302.73 580.31 297.69 C 572.48 292.66 567.55 287.56 564.03 278.97 C 560.50 270.39 559.37 256.80 562.98 247.98 C 566.58 239.15 571.28 234.34 579.08 229.08 C 586.88 223.83 600.51 222.88 610.00 224.00 C 619.49 225.12 626.03 231.08 633.00 237.00
M 44.00 260.00 
C 56.71 265.07 60.22 281.07 51.25 292.25 C 42.27 303.42 22.79 299.55 9.00 300.00
C 9.00 275.33 9.00 250.67 9.00 226.00
C 20.96 226.55 35.27 223.36 44.75 231.25 C 54.23 239.14 52.38 252.37 44.00 260.00
M 84.00 226.00 
C 84.00 246.00 84.00 266.00 84.00 286.00
C 91.00 286.00 98.00 286.00 105.00 286.00
C 105.00 290.67 105.00 295.33 105.00 300.00
C 93.00 300.00 81.00 300.00 69.00 300.00
C 69.00 275.33 69.00 250.67 69.00 226.00
C 74.00 226.00 79.00 226.00 84.00 226.00
M 159.00 226.00 
C 166.72 251.03 178.20 274.97 186.00 300.00
C 180.67 300.00 175.33 300.00 170.00 300.00
C 166.90 295.21 168.56 284.48 160.99 284.01 C 153.42 283.53 143.76 284.35 136.00 284.00
C 134.45 289.46 131.55 294.51 130.00 300.00
C 124.67 300.00 119.33 300.00 114.00 300.00
C 115.74 292.24 119.41 286.45 121.78 278.78 C 124.15 271.10 127.70 265.02 129.93 256.93 C 132.15 248.84 136.55 244.39 138.31 235.31 C 140.07 226.22 149.19 223.79 159.00 226.00
M 284.00 226.00 
C 284.66 233.83 282.67 242.99 285.00 250.00
C 289.19 241.35 297.82 234.65 302.00 226.00
C 308.33 226.00 314.67 226.00 321.00 226.00
C 313.80 237.81 303.39 248.13 296.00 260.00
C 305.47 273.06 314.90 286.54 324.00 300.00
C 317.67 300.00 311.33 300.00 305.00 300.00
C 299.59 289.45 291.21 280.26 285.00 270.00
C 282.69 279.09 284.65 290.16 284.00 300.00
C 279.00 300.00 274.00 300.00 269.00 300.00
C 269.00 275.33 269.00 250.67 269.00 226.00
C 274.00 226.00 279.00 226.00 284.00 226.00
M 373.00 226.00 
C 376.79 240.54 380.07 255.21 383.00 270.00
C 388.45 256.06 391.31 240.51 396.00 226.00
C 400.33 226.00 404.67 226.00 409.00 226.00
C 413.64 240.49 416.59 256.09 422.00 270.00
C 424.92 255.25 428.21 240.54 432.00 226.00
C 437.00 226.00 442.00 226.00 447.00 226.00
C 440.95 250.56 435.79 275.35 430.00 300.00
C 425.00 300.00 420.00 300.00 415.00 300.00
C 411.33 284.92 406.05 270.27 403.00 255.00
C 397.24 269.11 393.90 284.94 390.00 300.00
C 380.51 302.19 373.76 299.59 373.02 290.98 C 372.29 282.36 369.14 276.89 368.02 268.98 C 366.91 261.06 364.41 255.51 363.07 247.93 C 361.74 240.34 359.93 233.38 358.00 226.00
C 363.00 226.00 368.00 226.00 373.00 226.00
M 471.00 226.00 
C 471.00 250.67 471.00 275.33 471.00 300.00
C 466.00 300.00 461.00 300.00 456.00 300.00
C 456.00 275.33 456.00 250.67 456.00 226.00
C 461.00 226.00 466.00 226.00 471.00 226.00
M 532.00 272.00 
C 532.00 256.67 532.00 241.33 532.00 226.00
C 537.00 226.00 542.00 226.00 547.00 226.00
C 547.00 250.67 547.00 275.33 547.00 300.00
C 542.00 300.00 537.00 300.00 532.00 300.00
C 522.73 284.48 512.36 268.80 502.00 254.00
C 502.00 269.33 502.00 284.67 502.00 300.00
C 497.00 300.00 492.00 300.00 487.00 300.00
C 487.00 275.33 487.00 250.67 487.00 226.00
C 501.69 221.01 507.70 234.45 513.75 244.25 C 519.81 254.04 525.82 262.66 532.00 272.00
M 254.00 341.00 
C 263.33 342.93 263.80 354.48 255.92 350.08 C 248.03 345.68 241.73 347.86 238.08 355.08 C 234.43 362.29 244.47 374.12 251.22 369.22 C 257.98 364.32 266.67 367.92 258.75 373.75 C 250.84 379.58 242.60 376.39 236.25 371.75 C 229.90 367.11 229.40 356.73 232.78 349.78 C 236.15 342.82 246.22 339.39 254.00 341.00
M 308.00 348.00 
C 309.32 352.72 313.78 354.51 317.08 357.92 C 320.38 361.32 323.35 367.47 319.23 372.23 C 315.11 376.99 311.29 375.92 304.93 375.07 C 298.56 374.23 301.00 362.90 305.68 366.34 C 310.36 369.78 315.68 369.43 312.74 364.26 C 309.81 359.08 305.28 359.30 302.70 354.30 C 300.11 349.31 301.45 343.79 305.70 341.70 C 309.94 339.61 319.43 340.31 319.92 346.08 C 320.41 351.86 309.99 347.41 308.00 348.00
M 396.00 341.00 
C 417.41 346.30 407.03 383.23 385.33 375.67 C 363.63 368.11 373.30 335.38 396.00 341.00
M 286.00 342.00 
C 289.28 353.22 294.98 363.71 298.00 375.00
C 288.79 376.50 290.82 367.95 282.00 368.00 C 273.18 368.05 275.47 376.51 266.00 375.00
C 269.16 363.73 274.62 353.22 278.00 342.00
C 280.67 342.00 283.33 342.00 286.00 342.00
M 334.00 342.00 
C 334.00 353.00 334.00 364.00 334.00 375.00
C 324.12 377.97 326.82 365.33 327.00 359.00 C 327.18 352.67 323.61 338.99 334.00 342.00
M 348.00 342.00 
C 351.35 349.00 356.50 355.76 361.00 362.00
C 361.00 355.33 361.00 348.67 361.00 342.00
C 370.35 339.34 367.88 348.73 368.00 355.00 C 368.12 361.27 367.91 368.63 368.00 375.00
C 355.89 377.27 354.27 361.23 347.00 355.00
C 347.00 361.67 347.00 368.33 347.00 375.00
C 337.65 377.66 340.12 368.27 340.00 362.00 C 339.88 355.73 340.09 348.37 340.00 342.00
C 342.67 342.00 345.33 342.00 348.00 342.00
M 208.00 355.00 
C 208.34 365.32 194.58 360.20 186.00 361.00 C 177.42 361.80 166.07 360.61 157.00 361.00 C 147.93 361.39 138.31 360.81 129.00 361.00 C 119.69 361.20 109.40 360.85 100.00 361.00
C 99.66 350.68 113.42 355.80 122.00 355.00 C 130.58 354.20 141.93 355.39 151.00 355.00 C 160.07 354.61 169.69 355.20 179.00 355.00 C 188.31 354.80 198.60 355.15 208.00 355.00
M 539.00 355.00 
C 539.34 365.31 525.58 360.20 517.00 361.00 C 508.42 361.80 497.07 360.61 488.00 361.00 C 478.93 361.39 469.31 360.80 460.00 361.00 C 450.69 361.20 440.40 360.85 431.00 361.00
C 430.66 350.68 444.42 355.80 453.00 355.00 C 461.58 354.20 472.93 355.39 482.00 355.00 C 491.07 354.61 500.69 355.20 510.00 355.00 C 519.31 354.80 529.60 355.15 539.00 355.00 Z"/>
</g>
<g fill="None" fill-opacity="0.0" stroke="#F3CC3D" stroke-opacity="0.96" stroke-width="0.3"><path d="
M 96.00 0.00 
L 94.00 0.00
C 83.24 34.00 99.43 69.15 133.98 81.02 C 168.52 92.90 216.12 82.07 251.92 90.08 C 287.73 98.08 275.06 152.85 313.00 156.00
C 313.00 149.67 313.00 143.33 313.00 137.00
C 288.04 128.06 296.39 100.35 278.75 82.25 C 261.12 64.15 234.61 63.39 210.00 63.00 C 185.39 62.61 155.06 59.32 133.02 50.98 C 110.99 42.63 99.14 21.71 96.00 0.00 Z"/>
</g>
<g fill="None" fill-opacity="0.0" stroke="#F3CC3D" stroke-opacity="0.96" stroke-width="0.3"><path d="
M 545.00 0.00 
L 543.00 0.00
C 539.99 21.93 527.36 43.20 505.23 51.23 C 483.10 59.26 453.61 62.71 429.00 63.00 C 404.39 63.29 377.05 64.28 359.75 82.75 C 342.45 101.23 350.93 128.01 326.00 137.00
C 326.00 143.33 326.00 149.67 326.00 156.00
C 363.99 153.05 351.19 97.92 386.99 89.99 C 422.80 82.06 470.38 92.84 504.92 80.92 C 539.47 69.01 555.86 34.23 545.00 0.00 Z"/>
</g>
<g fill="None" fill-opacity="0.0" stroke="#F4CD42" stroke-opacity="0.89" stroke-width="0.3"><path d="
M 292.00 12.00 
C 284.25 10.55 281.91 23.11 290.00 24.00 C 298.08 24.88 298.69 13.25 292.00 12.00 Z"/>
</g>
<g fill="None" fill-opacity="0.0" stroke="#F4CD42" stroke-opacity="0.89" stroke-width="0.3"><path d="
M 323.00 12.00 
C 314.60 8.85 308.58 19.79 316.33 24.67 C 324.08 29.55 330.49 14.81 323.00 12.00 Z"/>
</g>
<g fill="None" fill-opacity="0.0" stroke="#F4CD42" stroke-opacity="0.88" stroke-width="0.3"><path d="
M 350.00 12.00 
C 343.04 10.70 339.00 21.95 347.00 24.00 C 355.00 26.05 357.65 13.43 350.00 12.00 Z"/>
</g>
<g fill="None" fill-opacity="0.0" stroke="#EFBD1E" stroke-opacity="0.93" stroke-width="0.3"><path d="
M 297.00 88.00 
C 300.70 89.83 308.70 85.62 312.00 88.00
C 300.77 54.30 270.99 37.23 235.00 38.00 C 199.01 38.77 154.94 33.94 120.00 27.00
C 163.01 77.82 265.01 19.59 297.00 88.00 Z"/>
</g>
<g fill="None" fill-opacity="0.0" stroke="#EFBD1E" stroke-opacity="0.93" stroke-width="0.3"><path d="
M 327.00 88.00 
C 330.30 85.62 338.30 89.83 342.00 88.00
C 378.12 21.37 472.76 76.40 520.00 27.00
C 496.29 31.52 468.99 35.08 445.00 37.00 C 421.01 38.92 387.98 35.35 367.23 44.23 C 346.48 53.11 332.22 66.94 327.00 88.00 Z"/>
</g>
<g fill="None" fill-opacity="0.0" stroke="#F7DA59" stroke-opacity="0.94" stroke-width="0.3"><path d="
M 312.00 88.00 
C 308.70 85.62 300.70 89.83 297.00 88.00
C 303.64 99.14 299.58 118.07 313.00 124.00
C 311.97 112.18 314.82 99.37 312.00 88.00 Z"/>
</g>
<g fill="None" fill-opacity="0.0" stroke="#F7DA59" stroke-opacity="0.94" stroke-width="0.3"><path d="
M 342.00 88.00 
C 338.30 89.83 330.30 85.62 327.00 88.00
C 324.79 99.53 326.58 112.06 326.00 124.00
C 338.61 117.69 336.55 99.65 342.00 88.00 Z"/>
</g>
<g fill="None" fill-opacity="0.0" stroke="#F1C329" stroke-opacity="0.97" stroke-width="0.3"><path d="
M 145.00 110.00 
C 156.72 113.86 171.79 107.65 184.00 110.00 C 196.21 112.35 210.83 107.59 223.00 110.00 C 235.17 112.41 250.41 105.93 262.00 110.00
C 247.28 92.82 221.93 101.81 201.00 100.00 C 180.07 98.19 155.93 102.66 137.00 93.00
C 136.37 99.97 140.67 105.37 145.00 110.00 Z"/>
</g>
<g fill="None" fill-opacity="0.0" stroke="#F2C630" stroke-opacity="0.98" stroke-width="0.3"><path d="
M 375.00 112.00 
C 412.67 115.00 452.74 111.00 490.00 114.00
C 497.26 109.10 501.12 101.03 503.00 93.00
C 483.21 102.34 457.66 98.51 436.00 100.00 C 414.34 101.49 389.30 92.76 375.00 112.00 Z"/>
</g>
<g fill="None" fill-opacity="0.0" stroke="#F7D754" stroke-opacity="0.98" stroke-width="0.3"><path d="
M 262.00 110.00 
C 250.41 105.93 235.17 112.41 223.00 110.00 C 210.83 107.59 196.21 112.35 184.00 110.00 C 171.79 107.65 156.72 113.86 145.00 110.00
C 176.94 140.04 228.24 120.29 269.00 126.00
C 269.30 119.72 265.86 114.34 262.00 110.00 Z"/>
</g>
<g fill="None" fill-opacity="0.0" stroke="#F7D958" stroke-opacity="0.98" stroke-width="0.3"><path d="
M 490.00 114.00 
C 452.74 111.00 412.67 115.00 375.00 112.00
C 372.28 116.17 369.74 120.80 370.00 126.00
C 390.86 126.03 415.52 125.96 436.00 126.00 C 456.48 126.04 475.06 127.95 490.00 114.00 Z"/>
</g>
<g fill="None" fill-opacity="0.0" stroke="#F0C026" stroke-opacity="0.98" stroke-width="0.3"><path d="
M 204.00 156.00 
C 211.68 157.41 222.16 153.68 231.00 155.00 C 239.84 156.32 249.92 154.31 259.00 155.00 C 268.08 155.69 277.86 154.48 287.00 155.00
C 279.95 147.73 278.05 136.96 266.00 138.00 C 253.95 139.04 240.24 137.44 228.00 138.00 C 215.76 138.56 203.27 137.58 191.00 138.00
C 191.84 145.79 198.63 151.27 204.00 156.00 Z"/>
</g>
<g fill="None" fill-opacity="0.0" stroke="#F0C026" stroke-opacity="0.98" stroke-width="0.3"><path d="
M 352.00 155.00 
C 361.14 154.49 370.93 155.69 380.00 155.00 C 389.07 154.31 399.17 156.31 408.00 155.00 C 416.83 153.69 427.40 157.39 435.00 156.00
C 441.33 151.83 445.90 144.97 449.00 138.00
C 441.53 137.97 433.40 138.04 426.00 138.00 C 418.60 137.96 410.16 138.07 403.00 138.00 C 395.84 137.93 386.58 138.16 380.00 138.00 C 373.42 137.84 363.96 136.57 361.75 142.75 C 359.54 148.93 352.29 149.02 352.00 155.00 Z"/>
</g>
<g fill="None" fill-opacity="0.0" stroke="#F4CD42" stroke-opacity="0.85" stroke-width="0.3"><path d="
M 139.00 147.00 
C 130.65 145.18 126.08 158.25 135.00 161.00 C 143.92 163.75 147.44 148.85 139.00 147.00 Z"/>
</g>
<g fill="None" fill-opacity="0.0" stroke="#F4CD42" stroke-opacity="0.85" stroke-width="0.3"><path d="
M 504.00 147.00 
C 495.65 145.18 491.08 158.25 500.00 161.00 C 508.92 163.75 512.44 148.85 504.00 147.00 Z"/>
</g>
<g fill="None" fill-opacity="0.0" stroke="#F4CD42" stroke-opacity="0.85" stroke-width="0.3"><path d="
M 111.00 148.00 
C 103.88 145.43 98.01 155.48 105.33 159.67 C 112.65 163.86 117.98 150.52 111.00 148.00 Z"/>
</g>
<g fill="None" fill-opacity="0.0" stroke="#F4CD43" stroke-opacity="0.85" stroke-width="0.3"><path d="
M 168.00 148.00 
C 160.27 146.20 156.50 157.26 164.00 160.00 C 171.50 162.74 175.53 149.75 168.00 148.00 Z"/>
</g>
<g fill="None" fill-opacity="0.0" stroke="#F4CD42" stroke-opacity="0.84" stroke-width="0.3"><path d="
M 476.00 148.00 
C 468.71 145.27 463.07 155.48 470.33 159.67 C 477.59 163.86 483.01 150.63 476.00 148.00 Z"/>
</g>
<g fill="None" fill-opacity="0.0" stroke="#F4CD42" stroke-opacity="0.84" stroke-width="0.3"><path d="
M 534.00 148.00 
C 526.46 145.17 521.22 155.95 528.33 159.67 C 535.44 163.39 540.99 150.62 534.00 148.00 Z"/>
</g>
<g fill="None" fill-opacity="0.0" stroke="#F7D957" stroke-opacity="0.96" stroke-width="0.3"><path d="
M 204.00 156.00 
C 209.27 160.64 214.37 163.78 221.33 165.67 C 228.28 167.57 238.86 166.81 246.00 167.00 C 253.14 167.19 265.36 166.67 270.98 164.98 C 276.59 163.28 287.32 161.62 287.00 155.00
C 277.86 154.48 268.08 155.69 259.00 155.00 C 249.92 154.31 239.84 156.32 231.00 155.00 C 222.16 153.68 211.68 157.41 204.00 156.00 Z"/>
</g>
<g fill="None" fill-opacity="0.0" stroke="#F7D957" stroke-opacity="0.96" stroke-width="0.3"><path d="
M 435.00 156.00 
C 427.40 157.39 416.83 153.69 408.00 155.00 C 399.17 156.31 389.07 154.31 380.00 155.00 C 370.93 155.69 361.14 154.49 352.00 155.00
C 351.66 162.08 363.47 163.32 368.98 165.02 C 374.49 166.73 385.80 167.10 393.00 167.00 C 400.20 166.90 411.38 167.45 418.32 165.32 C 425.26 163.19 429.67 160.69 435.00 156.00 Z"/>
</g>
<g fill="None" fill-opacity="0.0" stroke="#F4CE44" stroke-opacity="0.93" stroke-width="0.3"><path d="
M 313.00 169.00 
C 302.56 166.46 294.84 162.65 286.25 170.25 C 277.65 177.84 266.61 176.09 256.00 177.00
C 267.36 197.32 310.93 195.66 313.00 169.00 Z"/>
</g>
<g fill="None" fill-opacity="0.0" stroke="#F4CE44" stroke-opacity="0.93" stroke-width="0.3"><path d="
M 383.00 177.00 
C 372.32 176.29 360.61 177.48 352.08 169.92 C 343.54 162.37 336.32 166.85 326.00 169.00
C 328.07 195.67 371.65 197.31 383.00 177.00 Z"/>
</g>
<g fill="None" fill-opacity="0.0" stroke="#F1EFC3" stroke-opacity="0.93" stroke-width="0.3"><path d="
M 261.00 238.00 
C 236.46 209.69 187.49 226.19 188.00 264.00 C 188.52 301.81 238.24 315.95 261.00 287.00
C 257.57 284.32 253.76 281.06 252.00 277.00
C 241.55 286.47 223.17 291.67 211.70 281.30 C 200.24 270.93 200.46 254.58 212.25 244.25 C 224.04 233.92 241.53 240.09 252.00 249.00
C 254.18 244.87 259.91 242.63 261.00 238.00 Z"/>
</g>
<g fill="None" fill-opacity="0.0" stroke="#F1EFC3" stroke-opacity="0.94" stroke-width="0.3"><path d="
M 633.00 237.00 
C 626.03 231.08 619.49 225.12 610.00 224.00 C 600.51 222.88 586.88 223.83 579.08 229.08 C 571.28 234.34 566.58 239.15 562.98 247.98 C 559.37 256.80 560.50 270.39 564.03 278.97 C 567.55 287.56 572.48 292.66 580.31 297.69 C 588.13 302.73 602.95 302.60 611.33 301.33 C 619.71 300.05 628.03 293.30 632.08 287.08 C 636.12 280.85 643.90 264.37 635.00 262.00 C 626.10 259.63 609.59 263.78 600.00 262.00
C 600.00 267.00 600.00 272.00 600.00 277.00
C 607.00 277.00 614.00 277.00 621.00 277.00
C 608.76 296.64 574.71 286.05 576.00 262.00 C 577.29 237.95 608.38 232.09 624.00 248.00
C 626.18 243.87 631.91 241.63 633.00 237.00 Z"/>
</g>
<g fill="None" fill-opacity="0.0" stroke="#F1EFC3" stroke-opacity="0.95" stroke-width="0.3"><path d="
M 44.00 260.00 
C 52.38 252.37 54.23 239.14 44.75 231.25 C 35.27 223.36 20.96 226.55 9.00 226.00
C 9.00 250.67 9.00 275.33 9.00 300.00
C 22.79 299.55 42.27 303.42 51.25 292.25 C 60.22 281.07 56.71 265.07 44.00 260.00
M 24.00 255.00 
C 24.00 250.00 24.00 245.00 24.00 240.00
C 28.76 241.16 35.51 240.27 35.97 247.03 C 36.44 253.78 28.97 254.22 24.00 255.00
M 24.00 286.00 
C 24.00 280.00 24.00 274.00 24.00 268.00
C 30.04 269.84 40.39 267.83 40.99 277.01 C 41.59 286.19 30.00 284.71 24.00 286.00 Z"/>
</g>
<g fill="None" fill-opacity="0.0" stroke="#F1EFC4" stroke-opacity="0.96" stroke-width="0.3"><path d="
M 84.00 226.00 
C 79.00 226.00 74.00 226.00 69.00 226.00
C 69.00 250.67 69.00 275.33 69.00 300.00
C 81.00 300.00 93.00 300.00 105.00 300.00
C 105.00 295.33 105.00 290.67 105.00 286.00
C 98.00 286.00 91.00 286.00 84.00 286.00
C 84.00 266.00 84.00 246.00 84.00 226.00 Z"/>
</g>
<g fill="None" fill-opacity="0.0" stroke="#F1EFC3" stroke-opacity="0.96" stroke-width="0.3"><path d="
M 159.00 226.00 
C 149.19 223.79 140.07 226.22 138.31 235.31 C 136.55 244.39 132.15 248.84 129.93 256.93 C 127.70 265.02 124.15 271.10 121.78 278.78 C 119.41 286.45 115.74 292.24 114.00 300.00
C 119.33 300.00 124.67 300.00 130.00 300.00
C 131.55 294.51 134.45 289.46 136.00 284.00
C 143.76 284.35 153.42 283.53 160.99 284.01 C 168.56 284.48 166.90 295.21 170.00 300.00
C 175.33 300.00 180.67 300.00 186.00 300.00
C 178.20 274.97 166.72 251.03 159.00 226.00
M 159.00 270.00 
C 153.33 270.00 147.67 270.00 142.00 270.00
C 143.67 262.39 147.31 255.34 150.00 248.00
C 154.02 254.60 155.61 262.84 159.00 270.00 Z"/>
</g>
<g fill="None" fill-opacity="0.0" stroke="#F1EFC3" stroke-opacity="0.95" stroke-width="0.3"><path d="
M 284.00 226.00 
C 279.00 226.00 274.00 226.00 269.00 226.00
C 269.00 250.67 269.00 275.33 269.00 300.00
C 274.00 300.00 279.00 300.00 284.00 300.00
C 284.65 290.16 282.69 279.09 285.00 270.00
C 291.21 280.26 299.59 289.45 305.00 300.00
C 311.33 300.00 317.67 300.00 324.00 300.00
C 314.90 286.54 305.47 273.06 296.00 260.00
C 303.39 248.13 313.80 237.81 321.00 226.00
C 314.67 226.00 308.33 226.00 302.00 226.00
C 297.82 234.65 289.19 241.35 285.00 250.00
C 282.67 242.99 284.66 233.83 284.00 226.00 Z"/>
</g>
<g fill="None" fill-opacity="0.0" stroke="#F1EFC3" stroke-opacity="0.95" stroke-width="0.3"><path d="
M 373.00 226.00 
C 368.00 226.00 363.00 226.00 358.00 226.00
C 359.93 233.38 361.74 240.34 363.07 247.93 C 364.41 255.51 366.91 261.06 368.02 268.98 C 369.14 276.89 372.29 282.36 373.02 290.98 C 373.76 299.59 380.51 302.19 390.00 300.00
C 393.90 284.94 397.24 269.11 403.00 255.00
C 406.05 270.27 411.33 284.92 415.00 300.00
C 420.00 300.00 425.00 300.00 430.00 300.00
C 435.79 275.35 440.95 250.56 447.00 226.00
C 442.00 226.00 437.00 226.00 432.00 226.00
C 428.21 240.54 424.92 255.25 422.00 270.00
C 416.59 256.09 413.64 240.49 409.00 226.00
C 404.67 226.00 400.33 226.00 396.00 226.00
C 391.31 240.51 388.45 256.06 383.00 270.00
C 380.07 255.21 376.79 240.54 373.00 226.00 Z"/>
</g>
<g fill="None" fill-opacity="0.0" stroke="#F1EFC4" stroke-opacity="0.95" stroke-width="0.3"><path d="
M 471.00 226.00 
C 466.00 226.00 461.00 226.00 456.00 226.00
C 456.00 250.67 456.00 275.33 456.00 300.00
C 461.00 300.00 466.00 300.00 471.00 300.00
C 471.00 275.33 471.00 250.67 471.00 226.00 Z"/>
</g>
<g fill="None" fill-opacity="0.0" stroke="#F1EFC3" stroke-opacity="0.96" stroke-width="0.3"><path d="
M 532.00 272.00 
C 525.82 262.66 519.81 254.04 513.75 244.25 C 507.70 234.45 501.69 221.01 487.00 226.00
C 487.00 250.67 487.00 275.33 487.00 300.00
C 492.00 300.00 497.00 300.00 502.00 300.00
C 502.00 284.67 502.00 269.33 502.00 254.00
C 512.36 268.80 522.73 284.48 532.00 300.00
C 537.00 300.00 542.00 300.00 547.00 300.00
C 547.00 275.33 547.00 250.67 547.00 226.00
C 542.00 226.00 537.00 226.00 532.00 226.00
C 532.00 241.33 532.00 256.67 532.00 272.00 Z"/>
</g>
<g fill="None" fill-opacity="0.0" stroke="#000000" stroke-opacity="0.00" stroke-width="0.3"><path d="
M 24.00 255.00 
C 28.97 254.22 36.44 253.78 35.97 247.03 C 35.51 240.27 28.76 241.16 24.00 240.00
C 24.00 245.00 24.00 250.00 24.00 255.00 Z"/>
</g>
<g fill="None" fill-opacity="0.0" stroke="#000000" stroke-opacity="0.00" stroke-width="0.3"><path d="
M 159.00 270.00 
C 155.61 262.84 154.02 254.60 150.00 248.00
C 147.31 255.34 143.67 262.39 142.00 270.00
C 147.67 270.00 153.33 270.00 159.00 270.00 Z"/>
</g>
<g fill="None" fill-opacity="0.0" stroke="#000000" stroke-opacity="0.00" stroke-width="0.3"><path d="
M 24.00 286.00 
C 30.00 284.71 41.59 286.19 40.99 277.01 C 40.39 267.83 30.04 269.84 24.00 268.00
C 24.00 274.00 24.00 280.00 24.00 286.00 Z"/>
</g>
<g fill="None" fill-opacity="0.0" stroke="#F1F0C3" stroke-opacity="0.88" stroke-width="0.3"><path d="
M 254.00 341.00 
C 246.22 339.39 236.15 342.82 232.78 349.78 C 229.40 356.73 229.90 367.11 236.25 371.75 C 242.60 376.39 250.84 379.58 258.75 373.75 C 266.67 367.92 257.98 364.32 251.22 369.22 C 244.47 374.12 234.43 362.29 238.08 355.08 C 241.73 347.86 248.03 345.68 255.92 350.08 C 263.80 354.48 263.33 342.93 254.00 341.00 Z"/>
</g>
<g fill="None" fill-opacity="0.0" stroke="#F1F0C3" stroke-opacity="0.87" stroke-width="0.3"><path d="
M 308.00 348.00 
C 309.99 347.41 320.41 351.86 319.92 346.08 C 319.43 340.31 309.94 339.61 305.70 341.70 C 301.45 343.79 300.11 349.31 302.70 354.30 C 305.28 359.30 309.81 359.08 312.74 364.26 C 315.68 369.43 310.36 369.78 305.68 366.34 C 301.00 362.90 298.56 374.23 304.93 375.07 C 311.29 375.92 315.11 376.99 319.23 372.23 C 323.35 367.47 320.38 361.32 317.08 357.92 C 313.78 354.51 309.32 352.72 308.00 348.00 Z"/>
</g>
<g fill="None" fill-opacity="0.0" stroke="#F1F0C3" stroke-opacity="0.88" stroke-width="0.3"><path d="
M 396.00 341.00 
C 373.30 335.38 363.63 368.11 385.33 375.67 C 407.03 383.23 417.41 346.30 396.00 341.00
M 392.00 347.00 
C 404.73 348.84 402.72 371.79 388.99 369.99 C 375.26 368.20 378.16 345.00 392.00 347.00 Z"/>
</g>
<g fill="None" fill-opacity="0.0" stroke="#F1F0C3" stroke-opacity="0.90" stroke-width="0.3"><path d="
M 286.00 342.00 
C 283.33 342.00 280.67 342.00 278.00 342.00
C 274.62 353.22 269.16 363.73 266.00 375.00
C 275.47 376.51 273.18 368.05 282.00 368.00 C 290.82 367.95 288.79 376.50 298.00 375.00
C 294.98 363.71 289.28 353.22 286.00 342.00
M 286.00 362.00 
C 283.48 361.44 279.70 363.19 278.00 361.00
C 280.00 359.06 280.79 355.85 281.00 353.00
C 284.30 353.85 284.15 359.24 286.00 362.00 Z"/>
</g>
<g fill="None" fill-opacity="0.0" stroke="#F2F0C4" stroke-opacity="0.89" stroke-width="0.3"><path d="
M 334.00 342.00 
C 323.61 338.99 327.18 352.67 327.00 359.00 C 326.82 365.33 324.12 377.97 334.00 375.00
C 334.00 364.00 334.00 353.00 334.00 342.00 Z"/>
</g>
<g fill="None" fill-opacity="0.0" stroke="#F2F0C3" stroke-opacity="0.88" stroke-width="0.3"><path d="
M 348.00 342.00 
C 345.33 342.00 342.67 342.00 340.00 342.00
C 340.09 348.37 339.88 355.73 340.00 362.00 C 340.12 368.27 337.65 377.66 347.00 375.00
C 347.00 368.33 347.00 361.67 347.00 355.00
C 354.27 361.23 355.89 377.27 368.00 375.00
C 367.91 368.63 368.12 361.27 368.00 355.00 C 367.88 348.73 370.35 339.34 361.00 342.00
C 361.00 348.67 361.00 355.33 361.00 362.00
C 356.50 355.76 351.35 349.00 348.00 342.00 Z"/>
</g>
<g fill="None" fill-opacity="0.0" stroke="#000000" stroke-opacity="0.00" stroke-width="0.3"><path d="
M 392.00 347.00 
C 378.16 345.00 375.26 368.20 388.99 369.99 C 402.72 371.79 404.73 348.84 392.00 347.00 Z"/>
</g>
<g fill="None" fill-opacity="0.0" stroke="#000000" stroke-opacity="0.00" stroke-width="0.3"><path d="
M 286.00 362.00 
C 284.15 359.24 284.30 353.85 281.00 353.00
C 280.79 355.85 280.00 359.06 278.00 361.00
C 279.70 363.19 283.48 361.44 286.00 362.00 Z"/>
</g>
<g fill="None" fill-opacity="0.0" stroke="#F7DA5B" stroke-opacity="0.83" stroke-width="0.3"><path d="
M 208.00 355.00 
C 198.60 355.15 188.31 354.80 179.00 355.00 C 169.69 355.20 160.07 354.61 151.00 355.00 C 141.93 355.39 130.58 354.20 122.00 355.00 C 113.42 355.80 99.66 350.68 100.00 361.00
C 109.40 360.85 119.69 361.20 129.00 361.00 C 138.31 360.81 147.93 361.39 157.00 361.00 C 166.07 360.61 177.42 361.80 186.00 361.00 C 194.58 360.20 208.34 365.32 208.00 355.00 Z"/>
</g>
<g fill="None" fill-opacity="0.0" stroke="#F7DA5B" stroke-opacity="0.83" stroke-width="0.3"><path d="
M 539.00 355.00 
C 529.60 355.15 519.31 354.80 510.00 355.00 C 500.69 355.20 491.07 354.61 482.00 355.00 C 472.93 355.39 461.58 354.20 453.00 355.00 C 444.42 355.80 430.66 350.68 431.00 361.00
C 440.40 360.85 450.69 361.20 460.00 361.00 C 469.31 360.80 478.93 361.39 488.00 361.00 C 497.07 360.61 508.42 361.80 517.00 361.00 C 525.58 360.20 539.34 365.31 539.00 355.00 Z"/>
</g>
<g fill="#000000" fill-opacity="0.00" stroke="None">
<path d="
M 0.00 389.00 
L 644.00 389.00
L 644.00 0.00
L 545.00 0.00
C 555.86 34.23 539.47 69.01 504.92 80.92 C 470.38 92.84 422.80 82.06 386.99 89.99 C 351.19 97.92 363.99 153.05 326.00 156.00
C 326.00 149.67 326.00 143.33 326.00 137.00
C 350.93 128.01 342.45 101.23 359.75 82.75 C 377.05 64.28 404.39 63.29 429.00 63.00 C 453.61 62.71 483.10 59.26 505.23 51.23 C 527.36 43.20 539.99 21.93 543.00 0.00
L 96.00 0.00
C 99.14 21.71 110.99 42.63 133.02 50.98 C 155.06 59.32 185.39 62.61 210.00 63.00 C 234.61 63.39 261.12 64.15 278.75 82.25 C 296.39 100.35 288.04 128.06 313.00 137.00
C 313.00 143.33 313.00 149.67 313.00 156.00
C 275.06 152.85 287.73 98.08 251.92 90.08 C 216.12 82.07 168.52 92.90 133.98 81.02 C 99.43 69.15 83.24 34.00 94.00 0.00
L 0.00 0.00
L 0.00 389.00
M 292.00 12.00 
C 298.69 13.25 298.08 24.88 290.00 24.00 C 281.91 23.11 284.25 10.55 292.00 12.00
M 323.00 12.00 
C 330.49 14.81 324.08 29.55 316.33 24.67 C 308.58 19.79 314.60 8.85 323.00 12.00
M 350.00 12.00 
C 357.65 13.43 355.00 26.05 347.00 24.00 C 339.00 21.95 343.04 10.70 350.00 12.00
M 312.00 88.00 
C 314.82 99.37 311.97 112.18 313.00 124.00
C 299.58 118.07 303.64 99.14 297.00 88.00
C 265.01 19.59 163.01 77.82 120.00 27.00
C 154.94 33.94 199.01 38.77 235.00 38.00 C 270.99 37.23 300.77 54.30 312.00 88.00
M 342.00 88.00 
C 336.55 99.65 338.61 117.69 326.00 124.00
C 326.58 112.06 324.79 99.53 327.00 88.00
C 332.22 66.94 346.48 53.11 367.23 44.23 C 387.98 35.35 421.01 38.92 445.00 37.00 C 468.99 35.08 496.29 31.52 520.00 27.00
C 472.76 76.40 378.12 21.37 342.00 88.00
M 262.00 110.00 
C 265.86 114.34 269.30 119.72 269.00 126.00
C 228.24 120.29 176.94 140.04 145.00 110.00
C 140.67 105.37 136.37 99.97 137.00 93.00
C 155.93 102.66 180.07 98.19 201.00 100.00 C 221.93 101.81 247.28 92.82 262.00 110.00
M 490.00 114.00 
C 475.06 127.95 456.48 126.04 436.00 126.00 C 415.52 125.96 390.86 126.03 370.00 126.00
C 369.74 120.80 372.28 116.17 375.00 112.00
C 389.30 92.76 414.34 101.49 436.00 100.00 C 457.66 98.51 483.21 102.34 503.00 93.00
C 501.12 101.03 497.26 109.10 490.00 114.00
M 287.00 155.00 
C 287.32 161.62 276.59 163.28 270.98 164.98 C 265.36 166.67 253.14 167.19 246.00 167.00 C 238.86 166.81 228.28 167.57 221.33 165.67 C 214.37 163.78 209.27 160.64 204.00 156.00
C 198.63 151.27 191.84 145.79 191.00 138.00
C 203.27 137.58 215.76 138.56 228.00 138.00 C 240.24 137.44 253.95 139.04 266.00 138.00 C 278.05 136.96 279.95 147.73 287.00 155.00
M 435.00 156.00 
C 429.67 160.69 425.26 163.19 418.32 165.32 C 411.38 167.45 400.20 166.90 393.00 167.00 C 385.80 167.10 374.49 166.73 368.98 165.02 C 363.47 163.32 351.66 162.08 352.00 155.00
C 352.29 149.02 359.54 148.93 361.75 142.75 C 363.96 136.57 373.42 137.84 380.00 138.00 C 386.58 138.16 395.84 137.93 403.00 138.00 C 410.16 138.07 418.60 137.96 426.00 138.00 C 433.40 138.04 441.53 137.97 449.00 138.00
C 445.90 144.97 441.33 151.83 435.00 156.00
M 139.00 147.00 
C 147.44 148.85 143.92 163.75 135.00 161.00 C 126.08 158.25 130.65 145.18 139.00 147.00
M 504.00 147.00 
C 512.44 148.85 508.92 163.75 500.00 161.00 C 491.08 158.25 495.65 145.18 504.00 147.00
M 111.00 148.00 
C 117.98 150.52 112.65 163.86 105.33 159.67 C 98.01 155.48 103.88 145.43 111.00 148.00
M 168.00 148.00 
C 175.53 149.75 171.50 162.74 164.00 160.00 C 156.50 157.26 160.27 146.20 168.00 148.00
M 476.00 148.00 
C 483.01 150.63 477.59 163.86 470.33 159.67 C 463.07 155.48 468.71 145.27 476.00 148.00
M 534.00 148.00 
C 540.99 150.62 535.44 163.39 528.33 159.67 C 521.22 155.95 526.46 145.17 534.00 148.00
M 313.00 169.00 
C 310.93 195.66 267.36 197.32 256.00 177.00
C 266.61 176.09 277.65 177.84 286.25 170.25 C 294.84 162.65 302.56 166.46 313.00 169.00
M 383.00 177.00 
C 371.65 197.31 328.07 195.67 326.00 169.00
C 336.32 166.85 343.54 162.37 352.08 169.92 C 360.61 177.48 372.32 176.29 383.00 177.00
M 261.00 238.00 
C 259.91 242.63 254.18 244.87 252.00 249.00
C 241.53 240.09 224.04 233.92 212.25 244.25 C 200.46 254.58 200.24 270.93 211.70 281.30 C 223.17 291.67 241.55 286.47 252.00 277.00
C 253.76 281.06 257.57 284.32 261.00 287.00
C 238.24 315.95 188.52 301.81 188.00 264.00 C 187.49 226.19 236.46 209.69 261.00 238.00
M 633.00 237.00 
C 631.91 241.63 626.18 243.87 624.00 248.00
C 608.38 232.09 577.29 237.95 576.00 262.00 C 574.71 286.05 608.76 296.64 621.00 277.00
C 614.00 277.00 607.00 277.00 600.00 277.00
C 600.00 272.00 600.00 267.00 600.00 262.00
C 609.59 263.78 626.10 259.63 635.00 262.00 C 643.90 264.37 636.12 280.85 632.08 287.08 C 628.03 293.30 619.71 300.05 611.33 301.33 C 602.95 302.60 588.13 302.73 580.31 297.69 C 572.48 292.66 567.55 287.56 564.03 278.97 C 560.50 270.39 559.37 256.80 562.98 247.98 C 566.58 239.15 571.28 234.34 579.08 229.08 C 586.88 223.83 600.51 222.88 610.00 224.00 C 619.49 225.12 626.03 231.08 633.00 237.00
M 44.00 260.00 
C 56.71 265.07 60.22 281.07 51.25 292.25 C 42.27 303.42 22.79 299.55 9.00 300.00
C 9.00 275.33 9.00 250.67 9.00 226.00
C 20.96 226.55 35.27 223.36 44.75 231.25 C 54.23 239.14 52.38 252.37 44.00 260.00
M 84.00 226.00 
C 84.00 246.00 84.00 266.00 84.00 286.00
C 91.00 286.00 98.00 286.00 105.00 286.00
C 105.00 290.67 105.00 295.33 105.00 300.00
C 93.00 300.00 81.00 300.00 69.00 300.00
C 69.00 275.33 69.00 250.67 69.00 226.00
C 74.00 226.00 79.00 226.00 84.00 226.00
M 159.00 226.00 
C 166.72 251.03 178.20 274.97 186.00 300.00
C 180.67 300.00 175.33 300.00 170.00 300.00
C 166.90 295.21 168.56 284.48 160.99 284.01 C 153.42 283.53 143.76 284.35 136.00 284.00
C 134.45 289.46 131.55 294.51 130.00 300.00
C 124.67 300.00 119.33 300.00 114.00 300.00
C 115.74 292.24 119.41 286.45 121.78 278.78 C 124.15 271.10 127.70 265.02 129.93 256.93 C 132.15 248.84 136.55 244.39 138.31 235.31 C 140.07 226.22 149.19 223.79 159.00 226.00
M 284.00 226.00 
C 284.66 233.83 282.67 242.99 285.00 250.00
C 289.19 241.35 297.82 234.65 302.00 226.00
C 308.33 226.00 314.67 226.00 321.00 226.00
C 313.80 237.81 303.39 248.13 296.00 260.00
C 305.47 273.06 314.90 286.54 324.00 300.00
C 317.67 300.00 311.33 300.00 305.00 300.00
C 299.59 289.45 291.21 280.26 285.00 270.00
C 282.69 279.09 284.65 290.16 284.00 300.00
C 279.00 300.00 274.00 300.00 269.00 300.00
C 269.00 275.33 269.00 250.67 269.00 226.00
C 274.00 226.00 279.00 226.00 284.00 226.00
M 373.00 226.00 
C 376.79 240.54 380.07 255.21 383.00 270.00
C 388.45 256.06 391.31 240.51 396.00 226.00
C 400.33 226.00 404.67 226.00 409.00 226.00
C 413.64 240.49 416.59 256.09 422.00 270.00
C 424.92 255.25 428.21 240.54 432.00 226.00
C 437.00 226.00 442.00 226.00 447.00 226.00
C 440.95 250.56 435.79 275.35 430.00 300.00
C 425.00 300.00 420.00 300.00 415.00 300.00
C 411.33 284.92 406.05 270.27 403.00 255.00
C 397.24 269.11 393.90 284.94 390.00 300.00
C 380.51 302.19 373.76 299.59 373.02 290.98 C 372.29 282.36 369.14 276.89 368.02 268.98 C 366.91 261.06 364.41 255.51 363.07 247.93 C 361.74 240.34 359.93 233.38 358.00 226.00
C 363.00 226.00 368.00 226.00 373.00 226.00
M 471.00 226.00 
C 471.00 250.67 471.00 275.33 471.00 300.00
C 466.00 300.00 461.00 300.00 456.00 300.00
C 456.00 275.33 456.00 250.67 456.00 226.00
C 461.00 226.00 466.00 226.00 471.00 226.00
M 532.00 272.00 
C 532.00 256.67 532.00 241.33 532.00 226.00
C 537.00 226.00 542.00 226.00 547.00 226.00
C 547.00 250.67 547.00 275.33 547.00 300.00
C 542.00 300.00 537.00 300.00 532.00 300.00
C 522.73 284.48 512.36 268.80 502.00 254.00
C 502.00 269.33 502.00 284.67 502.00 300.00
C 497.00 300.00 492.00 300.00 487.00 300.00
C 487.00 275.33 487.00 250.67 487.00 226.00
C 501.69 221.01 507.70 234.45 513.75 244.25 C 519.81 254.04 525.82 262.66 532.00 272.00
M 254.00 341.00 
C 263.33 342.93 263.80 354.48 255.92 350.08 C 248.03 345.68 241.73 347.86 238.08 355.08 C 234.43 362.29 244.47 374.12 251.22 369.22 C 257.98 364.32 266.67 367.92 258.75 373.75 C 250.84 379.58 242.60 376.39 236.25 371.75 C 229.90 367.11 229.40 356.73 232.78 349.78 C 236.15 342.82 246.22 339.39 254.00 341.00
M 308.00 348.00 
C 309.32 352.72 313.78 354.51 317.08 357.92 C 320.38 361.32 323.35 367.47 319.23 372.23 C 315.11 376.99 311.29 375.92 304.93 375.07 C 298.56 374.23 301.00 362.90 305.68 366.34 C 310.36 369.78 315.68 369.43 312.74 364.26 C 309.81 359.08 305.28 359.30 302.70 354.30 C 300.11 349.31 301.45 343.79 305.70 341.70 C 309.94 339.61 319.43 340.31 319.92 346.08 C 320.41 351.86 309.99 347.41 308.00 348.00
M 396.00 341.00 
C 417.41 346.30 407.03 383.23 385.33 375.67 C 363.63 368.11 373.30 335.38 396.00 341.00
M 286.00 342.00 
C 289.28 353.22 294.98 363.71 298.00 375.00
C 288.79 376.50 290.82 367.95 282.00 368.00 C 273.18 368.05 275.47 376.51 266.00 375.00
C 269.16 363.73 274.62 353.22 278.00 342.00
C 280.67 342.00 283.33 342.00 286.00 342.00
M 334.00 342.00 
C 334.00 353.00 334.00 364.00 334.00 375.00
C 324.12 377.97 326.82 365.33 327.00 359.00 C 327.18 352.67 323.61 338.99 334.00 342.00
M 348.00 342.00 
C 351.35 349.00 356.50 355.76 361.00 362.00
C 361.00 355.33 361.00 348.67 361.00 342.00
C 370.35 339.34 367.88 348.73 368.00 355.00 C 368.12 361.27 367.91 368.63 368.00 375.00
C 355.89 377.27 354.27 361.23 347.00 355.00
C 347.00 361.67 347.00 368.33 347.00 375.00
C 337.65 377.66 340.12 368.27 340.00 362.00 C 339.88 355.73 340.09 348.37 340.00 342.00
C 342.67 342.00 345.33 342.00 348.00 342.00
M 208.00 355.00 
C 208.34 365.32 194.58 360.20 186.00 361.00 C 177.42 361.80 166.07 360.61 157.00 361.00 C 147.93 361.39 138.31 360.81 129.00 361.00 C 119.69 361.20 109.40 360.85 100.00 361.00
C 99.66 350.68 113.42 355.80 122.00 355.00 C 130.58 354.20 141.93 355.39 151.00 355.00 C 160.07 354.61 169.69 355.20 179.00 355.00 C 188.31 354.80 198.60 355.15 208.00 355.00
M 539.00 355.00 
C 539.34 365.31 525.58 360.20 517.00 361.00 C 508.42 361.80 497.07 360.61 488.00 361.00 C 478.93 361.39 469.31 360.80 460.00 361.00 C 450.69 361.20 440.40 360.85 431.00 361.00
C 430.66 350.68 444.42 355.80 453.00 355.00 C 461.58 354.20 472.93 355.39 482.00 355.00 C 491.07 354.61 500.69 355.20 510.00 355.00 C 519.31 354.80 529.60 355.15 539.00 355.00 Z"/>
</g>
<g fill="#F3CC3D" fill-opacity="0.96" stroke="None">
<path d="
M 96.00 0.00 
L 94.00 0.00
C 83.24 34.00 99.43 69.15 133.98 81.02 C 168.52 92.90 216.12 82.07 251.92 90.08 C 287.73 98.08 275.06 152.85 313.00 156.00
C 313.00 149.67 313.00 143.33 313.00 137.00
C 288.04 128.06 296.39 100.35 278.75 82.25 C 261.12 64.15 234.61 63.39 210.00 63.00 C 185.39 62.61 155.06 59.32 133.02 50.98 C 110.99 42.63 99.14 21.71 96.00 0.00 Z"/>
</g>
<g fill="#F3CC3D" fill-opacity="0.96" stroke="None">
<path d="
M 545.00 0.00 
L 543.00 0.00
C 539.99 21.93 527.36 43.20 505.23 51.23 C 483.10 59.26 453.61 62.71 429.00 63.00 C 404.39 63.29 377.05 64.28 359.75 82.75 C 342.45 101.23 350.93 128.01 326.00 137.00
C 326.00 143.33 326.00 149.67 326.00 156.00
C 363.99 153.05 351.19 97.92 386.99 89.99 C 422.80 82.06 470.38 92.84 504.92 80.92 C 539.47 69.01 555.86 34.23 545.00 0.00 Z"/>
</g>
<g fill="#F4CD42" fill-opacity="0.89" stroke="None">
<path d="
M 292.00 12.00 
C 284.25 10.55 281.91 23.11 290.00 24.00 C 298.08 24.88 298.69 13.25 292.00 12.00 Z"/>
</g>
<g fill="#F4CD42" fill-opacity="0.89" stroke="None">
<path d="
M 323.00 12.00 
C 314.60 8.85 308.58 19.79 316.33 24.67 C 324.08 29.55 330.49 14.81 323.00 12.00 Z"/>
</g>
<g fill="#F4CD42" fill-opacity="0.88" stroke="None">
<path d="
M 350.00 12.00 
C 343.04 10.70 339.00 21.95 347.00 24.00 C 355.00 26.05 357.65 13.43 350.00 12.00 Z"/>
</g>
<g fill="#EFBD1E" fill-opacity="0.93" stroke="None">
<path d="
M 297.00 88.00 
C 300.70 89.83 308.70 85.62 312.00 88.00
C 300.77 54.30 270.99 37.23 235.00 38.00 C 199.01 38.77 154.94 33.94 120.00 27.00
C 163.01 77.82 265.01 19.59 297.00 88.00 Z"/>
</g>
<g fill="#EFBD1E" fill-opacity="0.93" stroke="None">
<path d="
M 327.00 88.00 
C 330.30 85.62 338.30 89.83 342.00 88.00
C 378.12 21.37 472.76 76.40 520.00 27.00
C 496.29 31.52 468.99 35.08 445.00 37.00 C 421.01 38.92 387.98 35.35 367.23 44.23 C 346.48 53.11 332.22 66.94 327.00 88.00 Z"/>
</g>
<g fill="#F7DA59" fill-opacity="0.94" stroke="None">
<path d="
M 312.00 88.00 
C 308.70 85.62 300.70 89.83 297.00 88.00
C 303.64 99.14 299.58 118.07 313.00 124.00
C 311.97 112.18 314.82 99.37 312.00 88.00 Z"/>
</g>
<g fill="#F7DA59" fill-opacity="0.94" stroke="None">
<path d="
M 342.00 88.00 
C 338.30 89.83 330.30 85.62 327.00 88.00
C 324.79 99.53 326.58 112.06 326.00 124.00
C 338.61 117.69 336.55 99.65 342.00 88.00 Z"/>
</g>
<g fill="#F1C329" fill-opacity="0.97" stroke="None">
<path d="
M 145.00 110.00 
C 156.72 113.86 171.79 107.65 184.00 110.00 C 196.21 112.35 210.83 107.59 223.00 110.00 C 235.17 112.41 250.41 105.93 262.00 110.00
C 247.28 92.82 221.93 101.81 201.00 100.00 C 180.07 98.19 155.93 102.66 137.00 93.00
C 136.37 99.97 140.67 105.37 145.00 110.00 Z"/>
</g>
<g fill="#F2C630" fill-opacity="0.98" stroke="None">
<path d="
M 375.00 112.00 
C 412.67 115.00 452.74 111.00 490.00 114.00
C 497.26 109.10 501.12 101.03 503.00 93.00
C 483.21 102.34 457.66 98.51 436.00 100.00 C 414.34 101.49 389.30 92.76 375.00 112.00 Z"/>
</g>
<g fill="#F7D754" fill-opacity="0.98" stroke="None">
<path d="
M 262.00 110.00 
C 250.41 105.93 235.17 112.41 223.00 110.00 C 210.83 107.59 196.21 112.35 184.00 110.00 C 171.79 107.65 156.72 113.86 145.00 110.00
C 176.94 140.04 228.24 120.29 269.00 126.00
C 269.30 119.72 265.86 114.34 262.00 110.00 Z"/>
</g>
<g fill="#F7D958" fill-opacity="0.98" stroke="None">
<path d="
M 490.00 114.00 
C 452.74 111.00 412.67 115.00 375.00 112.00
C 372.28 116.17 369.74 120.80 370.00 126.00
C 390.86 126.03 415.52 125.96 436.00 126.00 C 456.48 126.04 475.06 127.95 490.00 114.00 Z"/>
</g>
<g fill="#F0C026" fill-opacity="0.98" stroke="None">
<path d="
M 204.00 156.00 
C 211.68 157.41 222.16 153.68 231.00 155.00 C 239.84 156.32 249.92 154.31 259.00 155.00 C 268.08 155.69 277.86 154.48 287.00 155.00
C 279.95 147.73 278.05 136.96 266.00 138.00 C 253.95 139.04 240.24 137.44 228.00 138.00 C 215.76 138.56 203.27 137.58 191.00 138.00
C 191.84 145.79 198.63 151.27 204.00 156.00 Z"/>
</g>
<g fill="#F0C026" fill-opacity="0.98" stroke="None">
<path d="
M 352.00 155.00 
C 361.14 154.49 370.93 155.69 380.00 155.00 C 389.07 154.31 399.17 156.31 408.00 155.00 C 416.83 153.69 427.40 157.39 435.00 156.00
C 441.33 151.83 445.90 144.97 449.00 138.00
C 441.53 137.97 433.40 138.04 426.00 138.00 C 418.60 137.96 410.16 138.07 403.00 138.00 C 395.84 137.93 386.58 138.16 380.00 138.00 C 373.42 137.84 363.96 136.57 361.75 142.75 C 359.54 148.93 352.29 149.02 352.00 155.00 Z"/>
</g>
<g fill="#F4CD42" fill-opacity="0.85" stroke="None">
<path d="
M 139.00 147.00 
C 130.65 145.18 126.08 158.25 135.00 161.00 C 143.92 163.75 147.44 148.85 139.00 147.00 Z"/>
</g>
<g fill="#F4CD42" fill-opacity="0.85" stroke="None">
<path d="
M 504.00 147.00 
C 495.65 145.18 491.08 158.25 500.00 161.00 C 508.92 163.75 512.44 148.85 504.00 147.00 Z"/>
</g>
<g fill="#F4CD42" fill-opacity="0.85" stroke="None">
<path d="
M 111.00 148.00 
C 103.88 145.43 98.01 155.48 105.33 159.67 C 112.65 163.86 117.98 150.52 111.00 148.00 Z"/>
</g>
<g fill="#F4CD43" fill-opacity="0.85" stroke="None">
<path d="
M 168.00 148.00 
C 160.27 146.20 156.50 157.26 164.00 160.00 C 171.50 162.74 175.53 149.75 168.00 148.00 Z"/>
</g>
<g fill="#F4CD42" fill-opacity="0.84" stroke="None">
<path d="
M 476.00 148.00 
C 468.71 145.27 463.07 155.48 470.33 159.67 C 477.59 163.86 483.01 150.63 476.00 148.00 Z"/>
</g>
<g fill="#F4CD42" fill-opacity="0.84" stroke="None">
<path d="
M 534.00 148.00 
C 526.46 145.17 521.22 155.95 528.33 159.67 C 535.44 163.39 540.99 150.62 534.00 148.00 Z"/>
</g>
<g fill="#F7D957" fill-opacity="0.96" stroke="None">
<path d="
M 204.00 156.00 
C 209.27 160.64 214.37 163.78 221.33 165.67 C 228.28 167.57 238.86 166.81 246.00 167.00 C 253.14 167.19 265.36 166.67 270.98 164.98 C 276.59 163.28 287.32 161.62 287.00 155.00
C 277.86 154.48 268.08 155.69 259.00 155.00 C 249.92 154.31 239.84 156.32 231.00 155.00 C 222.16 153.68 211.68 157.41 204.00 156.00 Z"/>
</g>
<g fill="#F7D957" fill-opacity="0.96" stroke="None">
<path d="
M 435.00 156.00 
C 427.40 157.39 416.83 153.69 408.00 155.00 C 399.17 156.31 389.07 154.31 380.00 155.00 C 370.93 155.69 361.14 154.49 352.00 155.00
C 351.66 162.08 363.47 163.32 368.98 165.02 C 374.49 166.73 385.80 167.10 393.00 167.00 C 400.20 166.90 411.38 167.45 418.32 165.32 C 425.26 163.19 429.67 160.69 435.00 156.00 Z"/>
</g>
<g fill="#F4CE44" fill-opacity="0.93" stroke="None">
<path d="
M 313.00 169.00 
C 302.56 166.46 294.84 162.65 286.25 170.25 C 277.65 177.84 266.61 176.09 256.00 177.00
C 267.36 197.32 310.93 195.66 313.00 169.00 Z"/>
</g>
<g fill="#F4CE44" fill-opacity="0.93" stroke="None">
<path d="
M 383.00 177.00 
C 372.32 176.29 360.61 177.48 352.08 169.92 C 343.54 162.37 336.32 166.85 326.00 169.00
C 328.07 195.67 371.65 197.31 383.00 177.00 Z"/>
</g>
<g fill="#F1EFC3" fill-opacity="0.93" stroke="None">
<path d="
M 261.00 238.00 
C 236.46 209.69 187.49 226.19 188.00 264.00 C 188.52 301.81 238.24 315.95 261.00 287.00
C 257.57 284.32 253.76 281.06 252.00 277.00
C 241.55 286.47 223.17 291.67 211.70 281.30 C 200.24 270.93 200.46 254.58 212.25 244.25 C 224.04 233.92 241.53 240.09 252.00 249.00
C 254.18 244.87 259.91 242.63 261.00 238.00 Z"/>
</g>
<g fill="#F1EFC3" fill-opacity="0.94" stroke="None">
<path d="
M 633.00 237.00 
C 626.03 231.08 619.49 225.12 610.00 224.00 C 600.51 222.88 586.88 223.83 579.08 229.08 C 571.28 234.34 566.58 239.15 562.98 247.98 C 559.37 256.80 560.50 270.39 564.03 278.97 C 567.55 287.56 572.48 292.66 580.31 297.69 C 588.13 302.73 602.95 302.60 611.33 301.33 C 619.71 300.05 628.03 293.30 632.08 287.08 C 636.12 280.85 643.90 264.37 635.00 262.00 C 626.10 259.63 609.59 263.78 600.00 262.00
C 600.00 267.00 600.00 272.00 600.00 277.00
C 607.00 277.00 614.00 277.00 621.00 277.00
C 608.76 296.64 574.71 286.05 576.00 262.00 C 577.29 237.95 608.38 232.09 624.00 248.00
C 626.18 243.87 631.91 241.63 633.00 237.00 Z"/>
</g>
<g fill="#F1EFC3" fill-opacity="0.95" stroke="None">
<path d="
M 44.00 260.00 
C 52.38 252.37 54.23 239.14 44.75 231.25 C 35.27 223.36 20.96 226.55 9.00 226.00
C 9.00 250.67 9.00 275.33 9.00 300.00
C 22.79 299.55 42.27 303.42 51.25 292.25 C 60.22 281.07 56.71 265.07 44.00 260.00
M 24.00 255.00 
C 24.00 250.00 24.00 245.00 24.00 240.00
C 28.76 241.16 35.51 240.27 35.97 247.03 C 36.44 253.78 28.97 254.22 24.00 255.00
M 24.00 286.00 
C 24.00 280.00 24.00 274.00 24.00 268.00
C 30.04 269.84 40.39 267.83 40.99 277.01 C 41.59 286.19 30.00 284.71 24.00 286.00 Z"/>
</g>
<g fill="#F1EFC4" fill-opacity="0.96" stroke="None">
<path d="
M 84.00 226.00 
C 79.00 226.00 74.00 226.00 69.00 226.00
C 69.00 250.67 69.00 275.33 69.00 300.00
C 81.00 300.00 93.00 300.00 105.00 300.00
C 105.00 295.33 105.00 290.67 105.00 286.00
C 98.00 286.00 91.00 286.00 84.00 286.00
C 84.00 266.00 84.00 246.00 84.00 226.00 Z"/>
</g>
<g fill="#F1EFC3" fill-opacity="0.96" stroke="None">
<path d="
M 159.00 226.00 
C 149.19 223.79 140.07 226.22 138.31 235.31 C 136.55 244.39 132.15 248.84 129.93 256.93 C 127.70 265.02 124.15 271.10 121.78 278.78 C 119.41 286.45 115.74 292.24 114.00 300.00
C 119.33 300.00 124.67 300.00 130.00 300.00
C 131.55 294.51 134.45 289.46 136.00 284.00
C 143.76 284.35 153.42 283.53 160.99 284.01 C 168.56 284.48 166.90 295.21 170.00 300.00
C 175.33 300.00 180.67 300.00 186.00 300.00
C 178.20 274.97 166.72 251.03 159.00 226.00
M 159.00 270.00 
C 153.33 270.00 147.67 270.00 142.00 270.00
C 143.67 262.39 147.31 255.34 150.00 248.00
C 154.02 254.60 155.61 262.84 159.00 270.00 Z"/>
</g>
<g fill="#F1EFC3" fill-opacity="0.95" stroke="None">
<path d="
M 284.00 226.00 
C 279.00 226.00 274.00 226.00 269.00 226.00
C 269.00 250.67 269.00 275.33 269.00 300.00
C 274.00 300.00 279.00 300.00 284.00 300.00
C 284.65 290.16 282.69 279.09 285.00 270.00
C 291.21 280.26 299.59 289.45 305.00 300.00
C 311.33 300.00 317.67 300.00 324.00 300.00
C 314.90 286.54 305.47 273.06 296.00 260.00
C 303.39 248.13 313.80 237.81 321.00 226.00
C 314.67 226.00 308.33 226.00 302.00 226.00
C 297.82 234.65 289.19 241.35 285.00 250.00
C 282.67 242.99 284.66 233.83 284.00 226.00 Z"/>
</g>
<g fill="#F1EFC3" fill-opacity="0.95" stroke="None">
<path d="
M 373.00 226.00 
C 368.00 226.00 363.00 226.00 358.00 226.00
C 359.93 233.38 361.74 240.34 363.07 247.93 C 364.41 255.51 366.91 261.06 368.02 268.98 C 369.14 276.89 372.29 282.36 373.02 290.98 C 373.76 299.59 380.51 302.19 390.00 300.00
C 393.90 284.94 397.24 269.11 403.00 255.00
C 406.05 270.27 411.33 284.92 415.00 300.00
C 420.00 300.00 425.00 300.00 430.00 300.00
C 435.79 275.35 440.95 250.56 447.00 226.00
C 442.00 226.00 437.00 226.00 432.00 226.00
C 428.21 240.54 424.92 255.25 422.00 270.00
C 416.59 256.09 413.64 240.49 409.00 226.00
C 404.67 226.00 400.33 226.00 396.00 226.00
C 391.31 240.51 388.45 256.06 383.00 270.00
C 380.07 255.21 376.79 240.54 373.00 226.00 Z"/>
</g>
<g fill="#F1EFC4" fill-opacity="0.95" stroke="None">
<path d="
M 471.00 226.00 
C 466.00 226.00 461.00 226.00 456.00 226.00
C 456.00 250.67 456.00 275.33 456.00 300.00
C 461.00 300.00 466.00 300.00 471.00 300.00
C 471.00 275.33 471.00 250.67 471.00 226.00 Z"/>
</g>
<g fill="#F1EFC3" fill-opacity="0.96" stroke="None">
<path d="
M 532.00 272.00 
C 525.82 262.66 519.81 254.04 513.75 244.25 C 507.70 234.45 501.69 221.01 487.00 226.00
C 487.00 250.67 487.00 275.33 487.00 300.00
C 492.00 300.00 497.00 300.00 502.00 300.00
C 502.00 284.67 502.00 269.33 502.00 254.00
C 512.36 268.80 522.73 284.48 532.00 300.00
C 537.00 300.00 542.00 300.00 547.00 300.00
C 547.00 275.33 547.00 250.67 547.00 226.00
C 542.00 226.00 537.00 226.00 532.00 226.00
C 532.00 241.33 532.00 256.67 532.00 272.00 Z"/>
</g>
<g fill="#000000" fill-opacity="0.00" stroke="None">
<path d="
M 24.00 255.00 
C 28.97 254.22 36.44 253.78 35.97 247.03 C 35.51 240.27 28.76 241.16 24.00 240.00
C 24.00 245.00 24.00 250.00 24.00 255.00 Z"/>
</g>
<g fill="#000000" fill-opacity="0.00" stroke="None">
<path d="
M 159.00 270.00 
C 155.61 262.84 154.02 254.60 150.00 248.00
C 147.31 255.34 143.67 262.39 142.00 270.00
C 147.67 270.00 153.33 270.00 159.00 270.00 Z"/>
</g>
<g fill="#000000" fill-opacity="0.00" stroke="None">
<path d="
M 24.00 286.00 
C 30.00 284.71 41.59 286.19 40.99 277.01 C 40.39 267.83 30.04 269.84 24.00 268.00
C 24.00 274.00 24.00 280.00 24.00 286.00 Z"/>
</g>
<g fill="#F1F0C3" fill-opacity="0.88" stroke="None">
<path d="
M 254.00 341.00 
C 246.22 339.39 236.15 342.82 232.78 349.78 C 229.40 356.73 229.90 367.11 236.25 371.75 C 242.60 376.39 250.84 379.58 258.75 373.75 C 266.67 367.92 257.98 364.32 251.22 369.22 C 244.47 374.12 234.43 362.29 238.08 355.08 C 241.73 347.86 248.03 345.68 255.92 350.08 C 263.80 354.48 263.33 342.93 254.00 341.00 Z"/>
</g>
<g fill="#F1F0C3" fill-opacity="0.87" stroke="None">
<path d="
M 308.00 348.00 
C 309.99 347.41 320.41 351.86 319.92 346.08 C 319.43 340.31 309.94 339.61 305.70 341.70 C 301.45 343.79 300.11 349.31 302.70 354.30 C 305.28 359.30 309.81 359.08 312.74 364.26 C 315.68 369.43 310.36 369.78 305.68 366.34 C 301.00 362.90 298.56 374.23 304.93 375.07 C 311.29 375.92 315.11 376.99 319.23 372.23 C 323.35 367.47 320.38 361.32 317.08 357.92 C 313.78 354.51 309.32 352.72 308.00 348.00 Z"/>
</g>
<g fill="#F1F0C3" fill-opacity="0.88" stroke="None">
<path d="
M 396.00 341.00 
C 373.30 335.38 363.63 368.11 385.33 375.67 C 407.03 383.23 417.41 346.30 396.00 341.00
M 392.00 347.00 
C 404.73 348.84 402.72 371.79 388.99 369.99 C 375.26 368.20 378.16 345.00 392.00 347.00 Z"/>
</g>
<g fill="#F1F0C3" fill-opacity="0.90" stroke="None">
<path d="
M 286.00 342.00 
C 283.33 342.00 280.67 342.00 278.00 342.00
C 274.62 353.22 269.16 363.73 266.00 375.00
C 275.47 376.51 273.18 368.05 282.00 368.00 C 290.82 367.95 288.79 376.50 298.00 375.00
C 294.98 363.71 289.28 353.22 286.00 342.00
M 286.00 362.00 
C 283.48 361.44 279.70 363.19 278.00 361.00
C 280.00 359.06 280.79 355.85 281.00 353.00
C 284.30 353.85 284.15 359.24 286.00 362.00 Z"/>
</g>
<g fill="#F2F0C4" fill-opacity="0.89" stroke="None">
<path d="
M 334.00 342.00 
C 323.61 338.99 327.18 352.67 327.00 359.00 C 326.82 365.33 324.12 377.97 334.00 375.00
C 334.00 364.00 334.00 353.00 334.00 342.00 Z"/>
</g>
<g fill="#F2F0C3" fill-opacity="0.88" stroke="None">
<path d="
M 348.00 342.00 
C 345.33 342.00 342.67 342.00 340.00 342.00
C 340.09 348.37 339.88 355.73 340.00 362.00 C 340.12 368.27 337.65 377.66 347.00 375.00
C 347.00 368.33 347.00 361.67 347.00 355.00
C 354.27 361.23 355.89 377.27 368.00 375.00
C 367.91 368.63 368.12 361.27 368.00 355.00 C 367.88 348.73 370.35 339.34 361.00 342.00
C 361.00 348.67 361.00 355.33 361.00 362.00
C 356.50 355.76 351.35 349.00 348.00 342.00 Z"/>
</g>
<g fill="#000000" fill-opacity="0.00" stroke="None">
<path d="
M 392.00 347.00 
C 378.16 345.00 375.26 368.20 388.99 369.99 C 402.72 371.79 404.73 348.84 392.00 347.00 Z"/>
</g>
<g fill="#000000" fill-opacity="0.00" stroke="None">
<path d="
M 286.00 362.00 
C 284.15 359.24 284.30 353.85 281.00 353.00
C 280.79 355.85 280.00 359.06 278.00 361.00
C 279.70 363.19 283.48 361.44 286.00 362.00 Z"/>
</g>
<g fill="#F7DA5B" fill-opacity="0.83" stroke="None">
<path d="
M 208.00 355.00 
C 198.60 355.15 188.31 354.80 179.00 355.00 C 169.69 355.20 160.07 354.61 151.00 355.00 C 141.93 355.39 130.58 354.20 122.00 355.00 C 113.42 355.80 99.66 350.68 100.00 361.00
C 109.40 360.85 119.69 361.20 129.00 361.00 C 138.31 360.81 147.93 361.39 157.00 361.00 C 166.07 360.61 177.42 361.80 186.00 361.00 C 194.58 360.20 208.34 365.32 208.00 355.00 Z"/>
</g>
<g fill="#F7DA5B" fill-opacity="0.83" stroke="None">
<path d="
M 539.00 355.00 
C 529.60 355.15 519.31 354.80 510.00 355.00 C 500.69 355.20 491.07 354.61 482.00 355.00 C 472.93 355.39 461.58 354.20 453.00 355.00 C 444.42 355.80 430.66 350.68 431.00 361.00
C 440.40 360.85 450.69 361.20 460.00 361.00 C 469.31 360.80 478.93 361.39 488.00 361.00 C 497.07 360.61 508.42 361.80 517.00 361.00 C 525.58 360.20 539.34 365.31 539.00 355.00 Z"/>
</g>
</svg>